<svg width="138" height="40" viewBox="0 0 138 40" fill="none" xmlns="http://www.w3.org/2000/svg">
<path d="M25.0569 21.1432C25.015 16.6012 28.8712 14.3916 29.0475 14.2887C26.8636 11.1842 23.4785 10.76 22.289 10.7262C19.446 10.4345 16.6882 12.3848 15.24 12.3848C13.7628 12.3848 11.5327 10.7544 9.12902 10.8023C6.03595 10.8488 3.14235 12.5948 1.55534 15.3062C-1.71984 20.8346 0.722818 28.9587 3.86069 33.4274C5.43035 35.6159 7.26451 38.0595 9.66525 37.9735C12.014 37.8791 12.8913 36.5136 15.7256 36.5136C18.534 36.5136 19.3578 37.9735 21.8063 37.9186C24.327 37.8791 25.914 35.7202 27.4287 33.5119C29.2426 31.0035 29.9711 28.5332 30 28.4063C29.9407 28.3866 25.1046 26.587 25.0569 21.1432Z" fill="#F05A24"/>
<path d="M20.4317 7.78655C21.695 6.24627 22.5593 4.15075 22.3194 2.02423C20.491 2.10315 18.2044 3.2573 16.8877 4.76376C15.7227 6.09125 14.6821 8.2671 14.9509 10.3133C17.0048 10.4627 19.1136 9.30288 20.4317 7.78655Z" fill="#F05A24"/>
<path d="M47.296 9V8.226H49.033C49.495 8.226 49.9 8.127 50.248 7.929C50.596 7.725 50.866 7.446 51.058 7.092C51.256 6.738 51.355 6.33 51.355 5.868C51.355 5.412 51.256 5.007 51.058 4.653C50.86 4.299 50.587 4.023 50.239 3.825C49.891 3.627 49.489 3.528 49.033 3.528H47.305V2.754H49.051C49.507 2.754 49.927 2.832 50.311 2.988C50.701 3.144 51.037 3.363 51.319 3.645C51.607 3.927 51.829 4.257 51.985 4.635C52.147 5.013 52.228 5.427 52.228 5.877C52.228 6.321 52.147 6.735 51.985 7.119C51.829 7.497 51.61 7.827 51.328 8.109C51.046 8.391 50.71 8.61 50.32 8.766C49.936 8.922 49.519 9 49.069 9H47.296ZM46.738 9V2.754H47.584V9H46.738ZM57.5941 9.09C57.1501 9.09 56.7361 9.009 56.3521 8.847C55.9681 8.679 55.6321 8.448 55.3441 8.154C55.0561 7.854 54.8311 7.509 54.6691 7.119C54.5131 6.729 54.4351 6.312 54.4351 5.868C54.4351 5.418 54.5131 5.001 54.6691 4.617C54.8311 4.227 55.0531 3.885 55.3351 3.591C55.6231 3.297 55.9561 3.069 56.3341 2.907C56.7181 2.745 57.1321 2.664 57.5761 2.664C58.0201 2.664 58.4311 2.745 58.8091 2.907C59.1931 3.069 59.5291 3.297 59.8171 3.591C60.1051 3.885 60.3301 4.227 60.4921 4.617C60.6541 5.007 60.7351 5.427 60.7351 5.877C60.7351 6.321 60.6541 6.738 60.4921 7.128C60.3301 7.518 60.1051 7.86 59.8171 8.154C59.5351 8.448 59.2021 8.679 58.8181 8.847C58.4401 9.009 58.0321 9.09 57.5941 9.09ZM57.5761 8.28C58.0261 8.28 58.4191 8.178 58.7551 7.974C59.0971 7.764 59.3671 7.479 59.5651 7.119C59.7631 6.753 59.8621 6.336 59.8621 5.868C59.8621 5.52 59.8051 5.202 59.6911 4.914C59.5771 4.62 59.4181 4.365 59.2141 4.149C59.0101 3.933 58.7701 3.768 58.4941 3.654C58.2181 3.534 57.9121 3.474 57.5761 3.474C57.1321 3.474 56.7391 3.576 56.3971 3.78C56.0611 3.984 55.7941 4.266 55.5961 4.626C55.4041 4.986 55.3081 5.4 55.3081 5.868C55.3081 6.216 55.3621 6.54 55.4701 6.84C55.5841 7.134 55.7401 7.389 55.9381 7.605C56.1421 7.815 56.3821 7.98 56.6581 8.1C56.9401 8.22 57.2461 8.28 57.5761 8.28ZM64.5486 9L62.5056 2.754H63.3516L64.9716 7.848H64.7286L66.3216 2.754H66.9336L68.5266 7.848H68.2926L69.9126 2.754H70.7496L68.7156 9H68.1126L66.5106 3.915H66.7446L65.1516 9H64.5486ZM73.1386 9V2.754H73.7326L73.9846 3.735V9H73.1386ZM77.4586 9L73.6246 3.879L73.7326 2.754L77.5756 7.866L77.4586 9ZM77.4586 9L77.2066 8.073V2.754H78.0526V9H77.4586ZM80.8782 9V2.754H81.7242V9H80.8782ZM81.4542 9V8.226H84.8022V9H81.4542ZM89.4931 9.09C89.0491 9.09 88.6351 9.009 88.2511 8.847C87.8671 8.679 87.5311 8.448 87.2431 8.154C86.9551 7.854 86.7301 7.509 86.5681 7.119C86.4121 6.729 86.3341 6.312 86.3341 5.868C86.3341 5.418 86.4121 5.001 86.5681 4.617C86.7301 4.227 86.9521 3.885 87.2341 3.591C87.5221 3.297 87.8551 3.069 88.2331 2.907C88.6171 2.745 89.0311 2.664 89.4751 2.664C89.9191 2.664 90.3301 2.745 90.7081 2.907C91.0921 3.069 91.4281 3.297 91.7161 3.591C92.0041 3.885 92.2291 4.227 92.3911 4.617C92.5531 5.007 92.6341 5.427 92.6341 5.877C92.6341 6.321 92.5531 6.738 92.3911 7.128C92.2291 7.518 92.0041 7.86 91.7161 8.154C91.4341 8.448 91.1011 8.679 90.7171 8.847C90.3391 9.009 89.9311 9.09 89.4931 9.09ZM89.4751 8.28C89.9251 8.28 90.3181 8.178 90.6541 7.974C90.9961 7.764 91.2661 7.479 91.4641 7.119C91.6621 6.753 91.7611 6.336 91.7611 5.868C91.7611 5.52 91.7041 5.202 91.5901 4.914C91.4761 4.62 91.3171 4.365 91.1131 4.149C90.9091 3.933 90.6691 3.768 90.3931 3.654C90.1171 3.534 89.8111 3.474 89.4751 3.474C89.0311 3.474 88.6381 3.576 88.2961 3.78C87.9601 3.984 87.6931 4.266 87.4951 4.626C87.3031 4.986 87.2071 5.4 87.2071 5.868C87.2071 6.216 87.2611 6.54 87.3691 6.84C87.4831 7.134 87.6391 7.389 87.8371 7.605C88.0411 7.815 88.2811 7.98 88.5571 8.1C88.8391 8.22 89.1451 8.28 89.4751 8.28ZM94.2198 9L96.7758 2.754H97.3878L99.9348 9H99.0168L96.9198 3.717H97.2348L95.1198 9H94.2198ZM95.4348 7.587V6.849H98.7198V7.587H95.4348ZM102.783 9V8.226H104.52C104.982 8.226 105.387 8.127 105.735 7.929C106.083 7.725 106.353 7.446 106.545 7.092C106.743 6.738 106.842 6.33 106.842 5.868C106.842 5.412 106.743 5.007 106.545 4.653C106.347 4.299 106.074 4.023 105.726 3.825C105.378 3.627 104.976 3.528 104.52 3.528H102.792V2.754H104.538C104.994 2.754 105.414 2.832 105.798 2.988C106.188 3.144 106.524 3.363 106.806 3.645C107.094 3.927 107.316 4.257 107.472 4.635C107.634 5.013 107.715 5.427 107.715 5.877C107.715 6.321 107.634 6.735 107.472 7.119C107.316 7.497 107.097 7.827 106.815 8.109C106.533 8.391 106.197 8.61 105.807 8.766C105.423 8.922 105.006 9 104.556 9H102.783ZM102.225 9V2.754H103.071V9H102.225ZM116.303 9.09C115.859 9.09 115.445 9.009 115.061 8.847C114.677 8.679 114.341 8.448 114.053 8.154C113.765 7.854 113.54 7.509 113.378 7.119C113.222 6.729 113.144 6.312 113.144 5.868C113.144 5.418 113.222 5.001 113.378 4.617C113.54 4.227 113.762 3.885 114.044 3.591C114.332 3.297 114.665 3.069 115.043 2.907C115.427 2.745 115.841 2.664 116.285 2.664C116.729 2.664 117.14 2.745 117.518 2.907C117.902 3.069 118.238 3.297 118.526 3.591C118.814 3.885 119.039 4.227 119.201 4.617C119.363 5.007 119.444 5.427 119.444 5.877C119.444 6.321 119.363 6.738 119.201 7.128C119.039 7.518 118.814 7.86 118.526 8.154C118.244 8.448 117.911 8.679 117.527 8.847C117.149 9.009 116.741 9.09 116.303 9.09ZM116.285 8.28C116.735 8.28 117.128 8.178 117.464 7.974C117.806 7.764 118.076 7.479 118.274 7.119C118.472 6.753 118.571 6.336 118.571 5.868C118.571 5.52 118.514 5.202 118.4 4.914C118.286 4.62 118.127 4.365 117.923 4.149C117.719 3.933 117.479 3.768 117.203 3.654C116.927 3.534 116.621 3.474 116.285 3.474C115.841 3.474 115.448 3.576 115.106 3.78C114.77 3.984 114.503 4.266 114.305 4.626C114.113 4.986 114.017 5.4 114.017 5.868C114.017 6.216 114.071 6.54 114.179 6.84C114.293 7.134 114.449 7.389 114.647 7.605C114.851 7.815 115.091 7.98 115.367 8.1C115.649 8.22 115.955 8.28 116.285 8.28ZM121.955 9V2.754H122.549L122.801 3.735V9H121.955ZM126.275 9L122.441 3.879L122.549 2.754L126.392 7.866L126.275 9ZM126.275 9L126.023 8.073V2.754H126.869V9H126.275Z" fill="#353333"/>
<path d="M46.558 35L51.67 22.508H52.894L57.988 35H56.152L51.958 24.434H52.588L48.358 35H46.558ZM48.988 32.174V30.698H55.558V32.174H48.988ZM65.6612 35.18C65.0132 35.18 64.4252 35.048 63.8972 34.784C63.3812 34.508 62.9672 34.13 62.6552 33.65C62.3432 33.17 62.1692 32.624 62.1332 32.012V29.438C62.1692 28.814 62.3432 28.268 62.6552 27.8C62.9792 27.32 63.3992 26.948 63.9152 26.684C64.4432 26.408 65.0252 26.27 65.6612 26.27C66.4412 26.27 67.1432 26.468 67.7672 26.864C68.4032 27.26 68.9012 27.794 69.2612 28.466C69.6212 29.138 69.8012 29.894 69.8012 30.734C69.8012 31.574 69.6212 32.33 69.2612 33.002C68.9012 33.674 68.4032 34.208 67.7672 34.604C67.1432 34.988 66.4412 35.18 65.6612 35.18ZM61.1612 38.582V26.45H62.7812V28.7L62.4752 30.77L62.7812 32.858V38.582H61.1612ZM65.3912 33.65C65.9312 33.65 66.4052 33.524 66.8132 33.272C67.2212 33.02 67.5452 32.678 67.7852 32.246C68.0252 31.802 68.1452 31.292 68.1452 30.716C68.1452 30.152 68.0252 29.648 67.7852 29.204C67.5452 28.76 67.2212 28.418 66.8132 28.178C66.4052 27.926 65.9372 27.8 65.4092 27.8C64.8692 27.8 64.3952 27.926 63.9872 28.178C63.5792 28.418 63.2612 28.76 63.0332 29.204C62.8052 29.648 62.6912 30.158 62.6912 30.734C62.6912 31.298 62.7992 31.802 63.0152 32.246C63.2432 32.678 63.5612 33.02 63.9692 33.272C64.3892 33.524 64.8632 33.65 65.3912 33.65ZM77.5778 35.18C76.9298 35.18 76.3418 35.048 75.8138 34.784C75.2978 34.508 74.8838 34.13 74.5718 33.65C74.2598 33.17 74.0858 32.624 74.0498 32.012V29.438C74.0858 28.814 74.2598 28.268 74.5718 27.8C74.8958 27.32 75.3158 26.948 75.8318 26.684C76.3598 26.408 76.9418 26.27 77.5778 26.27C78.3578 26.27 79.0598 26.468 79.6838 26.864C80.3198 27.26 80.8178 27.794 81.1778 28.466C81.5378 29.138 81.7178 29.894 81.7178 30.734C81.7178 31.574 81.5378 32.33 81.1778 33.002C80.8178 33.674 80.3198 34.208 79.6838 34.604C79.0598 34.988 78.3578 35.18 77.5778 35.18ZM73.0778 38.582V26.45H74.6978V28.7L74.3918 30.77L74.6978 32.858V38.582H73.0778ZM77.3078 33.65C77.8478 33.65 78.3218 33.524 78.7298 33.272C79.1378 33.02 79.4618 32.678 79.7018 32.246C79.9418 31.802 80.0618 31.292 80.0618 30.716C80.0618 30.152 79.9418 29.648 79.7018 29.204C79.4618 28.76 79.1378 28.418 78.7298 28.178C78.3218 27.926 77.8538 27.8 77.3258 27.8C76.7858 27.8 76.3118 27.926 75.9038 28.178C75.4958 28.418 75.1778 28.76 74.9498 29.204C74.7218 29.648 74.6078 30.158 74.6078 30.734C74.6078 31.298 74.7158 31.802 74.9318 32.246C75.1598 32.678 75.4778 33.02 75.8858 33.272C76.3058 33.524 76.7798 33.65 77.3078 33.65ZM93.9405 35.18C92.9565 35.18 92.1165 35 91.4205 34.64C90.7245 34.28 90.1065 33.758 89.5665 33.074L90.7185 31.922C91.1145 32.474 91.5705 32.894 92.0865 33.182C92.6025 33.458 93.2385 33.596 93.9945 33.596C94.7385 33.596 95.3325 33.434 95.7765 33.11C96.2325 32.786 96.4605 32.342 96.4605 31.778C96.4605 31.31 96.3525 30.932 96.1365 30.644C95.9205 30.356 95.6265 30.122 95.2545 29.942C94.8945 29.75 94.4985 29.582 94.0665 29.438C93.6345 29.282 93.2025 29.12 92.7705 28.952C92.3385 28.772 91.9425 28.556 91.5825 28.304C91.2225 28.04 90.9285 27.698 90.7005 27.278C90.4845 26.858 90.3765 26.33 90.3765 25.694C90.3765 24.986 90.5445 24.386 90.8805 23.894C91.2285 23.39 91.6965 23.006 92.2845 22.742C92.8845 22.466 93.5565 22.328 94.3005 22.328C95.1165 22.328 95.8485 22.49 96.4965 22.814C97.1445 23.126 97.6725 23.54 98.0805 24.056L96.9285 25.208C96.5565 24.776 96.1545 24.452 95.7225 24.236C95.3025 24.02 94.8165 23.912 94.2645 23.912C93.5925 23.912 93.0585 24.062 92.6625 24.362C92.2665 24.65 92.0685 25.058 92.0685 25.586C92.0685 26.006 92.1765 26.348 92.3925 26.612C92.6205 26.864 92.9145 27.08 93.2745 27.26C93.6345 27.44 94.0305 27.608 94.4625 27.764C94.9065 27.908 95.3445 28.07 95.7765 28.25C96.2085 28.43 96.6045 28.658 96.9645 28.934C97.3245 29.21 97.6125 29.57 97.8285 30.014C98.0565 30.446 98.1705 30.992 98.1705 31.652C98.1705 32.756 97.7865 33.62 97.0185 34.244C96.2625 34.868 95.2365 35.18 93.9405 35.18ZM102.917 35V22.868H104.537V35H102.917ZM100.811 27.926V26.45H106.643V27.926H100.811ZM113.312 35.18C112.472 35.18 111.716 34.982 111.044 34.586C110.372 34.19 109.838 33.656 109.442 32.984C109.046 32.3 108.848 31.538 108.848 30.698C108.848 29.87 109.046 29.126 109.442 28.466C109.838 27.794 110.372 27.26 111.044 26.864C111.716 26.468 112.472 26.27 113.312 26.27C114.14 26.27 114.89 26.468 115.562 26.864C116.246 27.248 116.786 27.776 117.182 28.448C117.578 29.12 117.776 29.87 117.776 30.698C117.776 31.538 117.578 32.3 117.182 32.984C116.786 33.656 116.246 34.19 115.562 34.586C114.89 34.982 114.14 35.18 113.312 35.18ZM113.312 33.614C113.852 33.614 114.332 33.488 114.752 33.236C115.172 32.984 115.502 32.642 115.742 32.21C115.982 31.766 116.102 31.262 116.102 30.698C116.102 30.146 115.976 29.654 115.724 29.222C115.484 28.79 115.154 28.454 114.734 28.214C114.326 27.962 113.852 27.836 113.312 27.836C112.772 27.836 112.292 27.962 111.872 28.214C111.452 28.454 111.122 28.79 110.882 29.222C110.642 29.654 110.522 30.146 110.522 30.698C110.522 31.262 110.642 31.766 110.882 32.21C111.122 32.642 111.452 32.984 111.872 33.236C112.292 33.488 112.772 33.614 113.312 33.614ZM121.041 35V26.45H122.661V35H121.041ZM122.661 30.122L122.049 29.852C122.049 28.76 122.301 27.89 122.805 27.242C123.309 26.594 124.035 26.27 124.983 26.27C125.415 26.27 125.805 26.348 126.153 26.504C126.501 26.648 126.825 26.894 127.125 27.242L126.063 28.34C125.883 28.148 125.685 28.01 125.469 27.926C125.253 27.842 125.001 27.8 124.713 27.8C124.113 27.8 123.621 27.992 123.237 28.376C122.853 28.76 122.661 29.342 122.661 30.122ZM133.385 35.18C132.533 35.18 131.765 34.988 131.081 34.604C130.397 34.208 129.857 33.674 129.461 33.002C129.065 32.33 128.867 31.568 128.867 30.716C128.867 29.876 129.059 29.12 129.443 28.448C129.839 27.776 130.367 27.248 131.027 26.864C131.699 26.468 132.449 26.27 133.277 26.27C134.069 26.27 134.765 26.45 135.365 26.81C135.977 27.17 136.451 27.668 136.787 28.304C137.135 28.94 137.309 29.66 137.309 30.464C137.309 30.584 137.303 30.716 137.291 30.86C137.279 30.992 137.255 31.148 137.219 31.328H130.001V29.978H136.355L135.761 30.5C135.761 29.924 135.659 29.438 135.455 29.042C135.251 28.634 134.963 28.322 134.591 28.106C134.219 27.878 133.769 27.764 133.241 27.764C132.689 27.764 132.203 27.884 131.783 28.124C131.363 28.364 131.039 28.7 130.811 29.132C130.583 29.564 130.469 30.074 130.469 30.662C130.469 31.262 130.589 31.79 130.829 32.246C131.069 32.69 131.411 33.038 131.855 33.29C132.299 33.53 132.809 33.65 133.385 33.65C133.865 33.65 134.303 33.566 134.699 33.398C135.107 33.23 135.455 32.978 135.743 32.642L136.787 33.704C136.379 34.184 135.875 34.55 135.275 34.802C134.687 35.054 134.057 35.18 133.385 35.18Z" fill="black"/>
</svg>
