<svg width="60" height="60" viewBox="0 0 60 60" fill="none" xmlns="http://www.w3.org/2000/svg">
<rect width="60" height="60" rx="30" fill="#B3DAE2"/>
<path d="M28.8017 19C25.6596 19 23.1121 21.2645 23.1121 24.0575H21.6897C18.731 24.0575 16.3627 26.0754 16.0882 28.6408C16.8079 28.8595 26.4462 31.7221 26.4462 31.7221C28.4874 32.3277 31.9609 32.3277 34.0021 31.7221C34.0021 31.7221 41.373 29.5347 44.4042 28.6408C44.141 26.0653 41.7244 24.0575 38.7586 24.0575H37.3362C37.3362 21.2645 34.7887 19 31.6466 19H28.8017ZM28.8017 21.5287H31.6466C33.2183 21.5287 34.4914 22.6603 34.4914 24.0575H25.9569C25.9569 22.6603 27.23 21.5287 28.8017 21.5287ZM16 31.2884V36.7012C16 39.4941 18.5475 41.7586 21.6897 41.7586H38.7586C41.9007 41.7586 44.4483 39.4941 44.4483 36.7012V31.2884L34.8911 34.1332C32.2667 34.9108 28.1815 34.9108 25.5572 34.1332L16 31.2884Z" fill="white"/>
</svg>
