<svg width="70" height="70" viewBox="0 0 70 70" fill="none" xmlns="http://www.w3.org/2000/svg">
<rect width="70" height="70" rx="12" fill="white"/>
<path d="M45 35H39L37 38H33L31 35H25" stroke="#F05A24" stroke-width="2" stroke-linecap="round" stroke-linejoin="round"/>
<path d="M28.45 28.11L25 35V41C25 41.5304 25.2107 42.0391 25.5858 42.4142C25.9609 42.7893 26.4696 43 27 43H43C43.5304 43 44.0391 42.7893 44.4142 42.4142C44.7893 42.0391 45 41.5304 45 41V35L41.55 28.11C41.3844 27.7768 41.1292 27.4964 40.813 27.3003C40.4967 27.1042 40.1321 27.0002 39.76 27H30.24C29.8679 27.0002 29.5033 27.1042 29.187 27.3003C28.8708 27.4964 28.6156 27.7768 28.45 28.11Z" stroke="#F05A24" stroke-width="2" stroke-linecap="round" stroke-linejoin="round"/>
</svg>
