<svg width="50" height="50" viewBox="0 0 50 50" fill="none" xmlns="http://www.w3.org/2000/svg">
<circle cx="25" cy="25" r="25" fill="#EAE6E6"/>
<path d="M16 25C16 20.5217 16 18.2825 17.3912 16.8912C18.7825 15.5 21.0217 15.5 25.5 15.5C29.9783 15.5 32.2175 15.5 33.6088 16.8912C35 18.2825 35 20.5217 35 25C35 29.4783 35 31.7175 33.6088 33.1088C32.2175 34.5 29.9783 34.5 25.5 34.5C21.0217 34.5 18.7825 34.5 17.3912 33.1088C16 31.7175 16 29.4783 16 25Z" fill="black" stroke="black" stroke-width="1.5" stroke-linejoin="round"/>
<path d="M30.5 21.75C30.9142 21.75 31.25 21.4142 31.25 21C31.25 20.5858 30.9142 20.25 30.5 20.25V21V21.75ZM29.5 21V21.75V21ZM24.75 34.5C24.75 34.9142 25.0858 35.25 25.5 35.25C25.9142 35.25 26.25 34.9142 26.25 34.5H25.5H24.75ZM23.5 26.25C23.0858 26.25 22.75 26.5858 22.75 27C22.75 27.4142 23.0858 27.75 23.5 27.75V27V26.25ZM28.5 27.75C28.9142 27.75 29.25 27.4142 29.25 27C29.25 26.5858 28.9142 26.25 28.5 26.25V27V27.75ZM30.5 21V20.25H29.5V21V21.75H30.5V21ZM25.5 25H24.75V34.5H25.5H26.25V25H25.5ZM29.5 21V20.25C28.5784 20.25 27.8117 20.2484 27.2055 20.3299C26.5777 20.4143 26.0109 20.6 25.5555 21.0555L26.0858 21.5858L26.6161 22.1161C26.7464 21.9858 26.9439 21.8786 27.4054 21.8165C27.8884 21.7516 28.536 21.75 29.5 21.75V21ZM25.5 25H26.25C26.25 24.036 26.2516 23.3884 26.3165 22.9054C26.3786 22.4439 26.4858 22.2464 26.6161 22.1161L26.0858 21.5858L25.5555 21.0555C25.1 21.5109 24.9143 22.0777 24.8299 22.7055C24.7484 23.3117 24.75 24.0784 24.75 25H25.5ZM23.5 27V27.75H28.5V27V26.25H23.5V27Z" fill="white"/>
</svg>
