<svg width="42" height="42" viewBox="0 0 42 42" fill="none" xmlns="http://www.w3.org/2000/svg">
<circle cx="21" cy="21" r="21" fill="#F05A24"/>
<path d="M19 22C19.4295 22.5741 19.9774 23.0492 20.6066 23.3929C21.2357 23.7367 21.9315 23.9411 22.6467 23.9923C23.3618 24.0435 24.0796 23.9404 24.7513 23.6898C25.4231 23.4392 26.0331 23.0471 26.54 22.54L29.54 19.54C30.4508 18.597 30.9548 17.334 30.9434 16.023C30.932 14.712 30.4061 13.4579 29.4791 12.5309C28.5521 11.6039 27.298 11.078 25.987 11.0666C24.676 11.0552 23.413 11.5592 22.47 12.47L20.75 14.18" stroke="white" stroke-width="2" stroke-linecap="round" stroke-linejoin="round"/>
<path d="M23.0002 20C22.5707 19.4259 22.0228 18.9508 21.3936 18.6071C20.7645 18.2633 20.0687 18.0589 19.3535 18.0077C18.6384 17.9564 17.9206 18.0596 17.2489 18.3102C16.5771 18.5608 15.9671 18.9529 15.4602 19.46L12.4602 22.46C11.5494 23.403 11.0454 24.666 11.0568 25.977C11.0682 27.288 11.5941 28.542 12.5211 29.4691C13.4481 30.3961 14.7022 30.922 16.0132 30.9334C17.3242 30.9448 18.5872 30.4408 19.5302 29.53L21.2402 27.82" stroke="white" stroke-width="2" stroke-linecap="round" stroke-linejoin="round"/>
</svg>
