<svg width="60" height="60" viewBox="0 0 60 60" fill="none" xmlns="http://www.w3.org/2000/svg">
<rect width="60" height="60" rx="30" fill="#B9E8D6"/>
<path d="M17.5082 26.74C16.583 27.1283 16.0087 27.8196 16.0001 28.7983C15.9941 29.4825 16.4558 30.4015 17.381 30.777C17.7621 30.9321 23.1128 31.6519 23.1128 31.6519C23.1128 31.6519 24.5291 36.1284 25.0394 37.7017C25.1872 38.1569 25.2715 38.3803 25.5958 38.6776C26.146 39.1811 27.0762 39.0233 27.4785 38.6193C28.5428 37.5524 30.225 35.9065 30.225 35.9065L30.933 36.4827C30.933 36.4827 34.0768 38.9905 35.7954 40.1712C36.8072 40.8668 37.5095 41.5923 38.6483 41.5965C39.2284 41.5994 40.1589 41.3106 40.774 40.6064C41.1804 40.1413 41.4411 39.3973 41.542 38.7302C41.7713 37.2152 44.4613 20.8338 44.45 20.2605C44.4318 19.3459 43.6623 18.8309 43.0228 18.8366C42.6211 18.8409 42.29 18.9575 41.5535 19.1823C35.8558 20.922 17.8856 26.5821 17.5082 26.74ZM38.76 23.1041C38.76 23.1041 31.2521 29.639 28.2519 32.6462C27.2907 33.6092 27.2228 35.2621 27.2228 35.2621L25.672 30.3005L38.76 23.1041Z" fill="white"/>
</svg>
