<svg width="140" height="40" viewBox="0 0 140 40" fill="none" xmlns="http://www.w3.org/2000/svg">
<path d="M0.565728 3.56312C0.207382 3.96865 0 4.60004 0 5.4177V34.5833C0 35.4009 0.207382 36.0323 0.565728 36.4378L0.654172 36.5269L15.7718 20.1901V19.8043L0.654172 3.46751L0.565728 3.56312Z" fill="#F05A24"/>
<path d="M22.6352 25.6384L17.6016 20.19V19.8043L22.6413 14.3559L22.7541 14.4268L28.7225 18.0981C30.4258 19.1399 30.4258 20.8544 28.7225 21.9028L22.7541 25.5675L22.6352 25.6384Z" fill="#F05A24"/>
<path d="M21.8391 26.582L16.6865 21.0116L1.48047 37.4523C2.0462 38.0952 2.96875 38.1727 4.01786 37.5298L21.8391 26.582Z" fill="#F05A24"/>
<path d="M21.8391 13.4123L4.01786 2.46454C2.96875 1.82821 2.0462 1.90569 1.48047 2.54861L16.6865 18.9827L21.8391 13.4123Z" fill="#F05A24"/>
<path d="M47.296 9V8.226H49.033C49.495 8.226 49.9 8.127 50.248 7.929C50.596 7.725 50.866 7.446 51.058 7.092C51.256 6.738 51.355 6.33 51.355 5.868C51.355 5.412 51.256 5.007 51.058 4.653C50.86 4.299 50.587 4.023 50.239 3.825C49.891 3.627 49.489 3.528 49.033 3.528H47.305V2.754H49.051C49.507 2.754 49.927 2.832 50.311 2.988C50.701 3.144 51.037 3.363 51.319 3.645C51.607 3.927 51.829 4.257 51.985 4.635C52.147 5.013 52.228 5.427 52.228 5.877C52.228 6.321 52.147 6.735 51.985 7.119C51.829 7.497 51.61 7.827 51.328 8.109C51.046 8.391 50.71 8.61 50.32 8.766C49.936 8.922 49.519 9 49.069 9H47.296ZM46.738 9V2.754H47.584V9H46.738ZM57.5941 9.09C57.1501 9.09 56.7361 9.009 56.3521 8.847C55.9681 8.679 55.6321 8.448 55.3441 8.154C55.0561 7.854 54.8311 7.509 54.6691 7.119C54.5131 6.729 54.4351 6.312 54.4351 5.868C54.4351 5.418 54.5131 5.001 54.6691 4.617C54.8311 4.227 55.0531 3.885 55.3351 3.591C55.6231 3.297 55.9561 3.069 56.3341 2.907C56.7181 2.745 57.1321 2.664 57.5761 2.664C58.0201 2.664 58.4311 2.745 58.8091 2.907C59.1931 3.069 59.5291 3.297 59.8171 3.591C60.1051 3.885 60.3301 4.227 60.4921 4.617C60.6541 5.007 60.7351 5.427 60.7351 5.877C60.7351 6.321 60.6541 6.738 60.4921 7.128C60.3301 7.518 60.1051 7.86 59.8171 8.154C59.5351 8.448 59.2021 8.679 58.8181 8.847C58.4401 9.009 58.0321 9.09 57.5941 9.09ZM57.5761 8.28C58.0261 8.28 58.4191 8.178 58.7551 7.974C59.0971 7.764 59.3671 7.479 59.5651 7.119C59.7631 6.753 59.8621 6.336 59.8621 5.868C59.8621 5.52 59.8051 5.202 59.6911 4.914C59.5771 4.62 59.4181 4.365 59.2141 4.149C59.0101 3.933 58.7701 3.768 58.4941 3.654C58.2181 3.534 57.9121 3.474 57.5761 3.474C57.1321 3.474 56.7391 3.576 56.3971 3.78C56.0611 3.984 55.7941 4.266 55.5961 4.626C55.4041 4.986 55.3081 5.4 55.3081 5.868C55.3081 6.216 55.3621 6.54 55.4701 6.84C55.5841 7.134 55.7401 7.389 55.9381 7.605C56.1421 7.815 56.3821 7.98 56.6581 8.1C56.9401 8.22 57.2461 8.28 57.5761 8.28ZM64.5486 9L62.5056 2.754H63.3516L64.9716 7.848H64.7286L66.3216 2.754H66.9336L68.5266 7.848H68.2926L69.9126 2.754H70.7496L68.7156 9H68.1126L66.5106 3.915H66.7446L65.1516 9H64.5486ZM73.1386 9V2.754H73.7326L73.9846 3.735V9H73.1386ZM77.4586 9L73.6246 3.879L73.7326 2.754L77.5756 7.866L77.4586 9ZM77.4586 9L77.2066 8.073V2.754H78.0526V9H77.4586ZM80.8782 9V2.754H81.7242V9H80.8782ZM81.4542 9V8.226H84.8022V9H81.4542ZM89.4931 9.09C89.0491 9.09 88.6351 9.009 88.2511 8.847C87.8671 8.679 87.5311 8.448 87.2431 8.154C86.9551 7.854 86.7301 7.509 86.5681 7.119C86.4121 6.729 86.3341 6.312 86.3341 5.868C86.3341 5.418 86.4121 5.001 86.5681 4.617C86.7301 4.227 86.9521 3.885 87.2341 3.591C87.5221 3.297 87.8551 3.069 88.2331 2.907C88.6171 2.745 89.0311 2.664 89.4751 2.664C89.9191 2.664 90.3301 2.745 90.7081 2.907C91.0921 3.069 91.4281 3.297 91.7161 3.591C92.0041 3.885 92.2291 4.227 92.3911 4.617C92.5531 5.007 92.6341 5.427 92.6341 5.877C92.6341 6.321 92.5531 6.738 92.3911 7.128C92.2291 7.518 92.0041 7.86 91.7161 8.154C91.4341 8.448 91.1011 8.679 90.7171 8.847C90.3391 9.009 89.9311 9.09 89.4931 9.09ZM89.4751 8.28C89.9251 8.28 90.3181 8.178 90.6541 7.974C90.9961 7.764 91.2661 7.479 91.4641 7.119C91.6621 6.753 91.7611 6.336 91.7611 5.868C91.7611 5.52 91.7041 5.202 91.5901 4.914C91.4761 4.62 91.3171 4.365 91.1131 4.149C90.9091 3.933 90.6691 3.768 90.3931 3.654C90.1171 3.534 89.8111 3.474 89.4751 3.474C89.0311 3.474 88.6381 3.576 88.2961 3.78C87.9601 3.984 87.6931 4.266 87.4951 4.626C87.3031 4.986 87.2071 5.4 87.2071 5.868C87.2071 6.216 87.2611 6.54 87.3691 6.84C87.4831 7.134 87.6391 7.389 87.8371 7.605C88.0411 7.815 88.2811 7.98 88.5571 8.1C88.8391 8.22 89.1451 8.28 89.4751 8.28ZM94.2198 9L96.7758 2.754H97.3878L99.9348 9H99.0168L96.9198 3.717H97.2348L95.1198 9H94.2198ZM95.4348 7.587V6.849H98.7198V7.587H95.4348ZM102.783 9V8.226H104.52C104.982 8.226 105.387 8.127 105.735 7.929C106.083 7.725 106.353 7.446 106.545 7.092C106.743 6.738 106.842 6.33 106.842 5.868C106.842 5.412 106.743 5.007 106.545 4.653C106.347 4.299 106.074 4.023 105.726 3.825C105.378 3.627 104.976 3.528 104.52 3.528H102.792V2.754H104.538C104.994 2.754 105.414 2.832 105.798 2.988C106.188 3.144 106.524 3.363 106.806 3.645C107.094 3.927 107.316 4.257 107.472 4.635C107.634 5.013 107.715 5.427 107.715 5.877C107.715 6.321 107.634 6.735 107.472 7.119C107.316 7.497 107.097 7.827 106.815 8.109C106.533 8.391 106.197 8.61 105.807 8.766C105.423 8.922 105.006 9 104.556 9H102.783ZM102.225 9V2.754H103.071V9H102.225ZM116.303 9.09C115.859 9.09 115.445 9.009 115.061 8.847C114.677 8.679 114.341 8.448 114.053 8.154C113.765 7.854 113.54 7.509 113.378 7.119C113.222 6.729 113.144 6.312 113.144 5.868C113.144 5.418 113.222 5.001 113.378 4.617C113.54 4.227 113.762 3.885 114.044 3.591C114.332 3.297 114.665 3.069 115.043 2.907C115.427 2.745 115.841 2.664 116.285 2.664C116.729 2.664 117.14 2.745 117.518 2.907C117.902 3.069 118.238 3.297 118.526 3.591C118.814 3.885 119.039 4.227 119.201 4.617C119.363 5.007 119.444 5.427 119.444 5.877C119.444 6.321 119.363 6.738 119.201 7.128C119.039 7.518 118.814 7.86 118.526 8.154C118.244 8.448 117.911 8.679 117.527 8.847C117.149 9.009 116.741 9.09 116.303 9.09ZM116.285 8.28C116.735 8.28 117.128 8.178 117.464 7.974C117.806 7.764 118.076 7.479 118.274 7.119C118.472 6.753 118.571 6.336 118.571 5.868C118.571 5.52 118.514 5.202 118.4 4.914C118.286 4.62 118.127 4.365 117.923 4.149C117.719 3.933 117.479 3.768 117.203 3.654C116.927 3.534 116.621 3.474 116.285 3.474C115.841 3.474 115.448 3.576 115.106 3.78C114.77 3.984 114.503 4.266 114.305 4.626C114.113 4.986 114.017 5.4 114.017 5.868C114.017 6.216 114.071 6.54 114.179 6.84C114.293 7.134 114.449 7.389 114.647 7.605C114.851 7.815 115.091 7.98 115.367 8.1C115.649 8.22 115.955 8.28 116.285 8.28ZM121.955 9V2.754H122.549L122.801 3.735V9H121.955ZM126.275 9L122.441 3.879L122.549 2.754L126.392 7.866L126.275 9ZM126.275 9L126.023 8.073V2.754H126.869V9H126.275Z" fill="#353333"/>
<path d="M48.61 30.14V28.664H52.012C52.48 28.664 52.894 28.568 53.254 28.376C53.626 28.184 53.914 27.914 54.118 27.566C54.334 27.218 54.442 26.804 54.442 26.324C54.442 25.844 54.334 25.43 54.118 25.082C53.914 24.734 53.626 24.464 53.254 24.272C52.894 24.08 52.48 23.984 52.012 23.984H48.61V22.508H52.12C52.888 22.508 53.572 22.664 54.172 22.976C54.784 23.288 55.264 23.732 55.612 24.308C55.972 24.872 56.152 25.544 56.152 26.324C56.152 27.092 55.972 27.764 55.612 28.34C55.264 28.904 54.784 29.348 54.172 29.672C53.572 29.984 52.888 30.14 52.12 30.14H48.61ZM47.476 35V22.508H49.168V35H47.476ZM59.544 35V22.148H61.164V35H59.544ZM68.6103 35.18C67.8303 35.18 67.1223 34.988 66.4863 34.604C65.8503 34.208 65.3463 33.674 64.9743 33.002C64.6143 32.33 64.4343 31.574 64.4343 30.734C64.4343 29.894 64.6143 29.138 64.9743 28.466C65.3463 27.794 65.8443 27.26 66.4683 26.864C67.1043 26.468 67.8183 26.27 68.6103 26.27C69.2583 26.27 69.8343 26.408 70.3383 26.684C70.8543 26.948 71.2683 27.32 71.5803 27.8C71.8923 28.268 72.0663 28.814 72.1023 29.438V32.012C72.0663 32.624 71.8923 33.17 71.5803 33.65C71.2803 34.13 70.8723 34.508 70.3563 34.784C69.8523 35.048 69.2703 35.18 68.6103 35.18ZM68.8803 33.65C69.6843 33.65 70.3323 33.38 70.8243 32.84C71.3163 32.288 71.5623 31.586 71.5623 30.734C71.5623 30.146 71.4483 29.636 71.2203 29.204C71.0043 28.76 70.6923 28.418 70.2843 28.178C69.8763 27.926 69.4023 27.8 68.8623 27.8C68.3223 27.8 67.8423 27.926 67.4223 28.178C67.0143 28.43 66.6903 28.778 66.4503 29.222C66.2223 29.654 66.1083 30.152 66.1083 30.716C66.1083 31.292 66.2223 31.802 66.4503 32.246C66.6903 32.678 67.0203 33.02 67.4403 33.272C67.8603 33.524 68.3403 33.65 68.8803 33.65ZM71.4543 35V32.696L71.7603 30.608L71.4543 28.538V26.45H73.0923V35H71.4543ZM79.6988 35.072L75.9908 26.45H77.7908L80.5448 33.2H79.9688L82.8668 26.45H84.6668L80.6708 35.072H79.6988ZM77.2508 38.582L79.7708 33.416L80.6708 35.072L79.0508 38.582H77.2508ZM96.523 35.18C95.539 35.18 94.699 35 94.003 34.64C93.307 34.28 92.689 33.758 92.149 33.074L93.301 31.922C93.697 32.474 94.153 32.894 94.669 33.182C95.185 33.458 95.821 33.596 96.577 33.596C97.321 33.596 97.915 33.434 98.359 33.11C98.815 32.786 99.043 32.342 99.043 31.778C99.043 31.31 98.935 30.932 98.719 30.644C98.503 30.356 98.209 30.122 97.837 29.942C97.477 29.75 97.081 29.582 96.649 29.438C96.217 29.282 95.785 29.12 95.353 28.952C94.921 28.772 94.525 28.556 94.165 28.304C93.805 28.04 93.511 27.698 93.283 27.278C93.067 26.858 92.959 26.33 92.959 25.694C92.959 24.986 93.127 24.386 93.463 23.894C93.811 23.39 94.279 23.006 94.867 22.742C95.467 22.466 96.139 22.328 96.883 22.328C97.699 22.328 98.431 22.49 99.079 22.814C99.727 23.126 100.255 23.54 100.663 24.056L99.511 25.208C99.139 24.776 98.737 24.452 98.305 24.236C97.885 24.02 97.399 23.912 96.847 23.912C96.175 23.912 95.641 24.062 95.245 24.362C94.849 24.65 94.651 25.058 94.651 25.586C94.651 26.006 94.759 26.348 94.975 26.612C95.203 26.864 95.497 27.08 95.857 27.26C96.217 27.44 96.613 27.608 97.045 27.764C97.489 27.908 97.927 28.07 98.359 28.25C98.791 28.43 99.187 28.658 99.547 28.934C99.907 29.21 100.195 29.57 100.411 30.014C100.639 30.446 100.753 30.992 100.753 31.652C100.753 32.756 100.369 33.62 99.601 34.244C98.845 34.868 97.819 35.18 96.523 35.18ZM105.499 35V22.868H107.119V35H105.499ZM103.393 27.926V26.45H109.225V27.926H103.393ZM115.895 35.18C115.055 35.18 114.299 34.982 113.627 34.586C112.955 34.19 112.421 33.656 112.025 32.984C111.629 32.3 111.431 31.538 111.431 30.698C111.431 29.87 111.629 29.126 112.025 28.466C112.421 27.794 112.955 27.26 113.627 26.864C114.299 26.468 115.055 26.27 115.895 26.27C116.723 26.27 117.473 26.468 118.145 26.864C118.829 27.248 119.369 27.776 119.765 28.448C120.161 29.12 120.359 29.87 120.359 30.698C120.359 31.538 120.161 32.3 119.765 32.984C119.369 33.656 118.829 34.19 118.145 34.586C117.473 34.982 116.723 35.18 115.895 35.18ZM115.895 33.614C116.435 33.614 116.915 33.488 117.335 33.236C117.755 32.984 118.085 32.642 118.325 32.21C118.565 31.766 118.685 31.262 118.685 30.698C118.685 30.146 118.559 29.654 118.307 29.222C118.067 28.79 117.737 28.454 117.317 28.214C116.909 27.962 116.435 27.836 115.895 27.836C115.355 27.836 114.875 27.962 114.455 28.214C114.035 28.454 113.705 28.79 113.465 29.222C113.225 29.654 113.105 30.146 113.105 30.698C113.105 31.262 113.225 31.766 113.465 32.21C113.705 32.642 114.035 32.984 114.455 33.236C114.875 33.488 115.355 33.614 115.895 33.614ZM123.624 35V26.45H125.244V35H123.624ZM125.244 30.122L124.632 29.852C124.632 28.76 124.884 27.89 125.388 27.242C125.892 26.594 126.618 26.27 127.566 26.27C127.998 26.27 128.388 26.348 128.736 26.504C129.084 26.648 129.408 26.894 129.708 27.242L128.646 28.34C128.466 28.148 128.268 28.01 128.052 27.926C127.836 27.842 127.584 27.8 127.296 27.8C126.696 27.8 126.204 27.992 125.82 28.376C125.436 28.76 125.244 29.342 125.244 30.122ZM135.967 35.18C135.115 35.18 134.347 34.988 133.663 34.604C132.979 34.208 132.439 33.674 132.043 33.002C131.647 32.33 131.449 31.568 131.449 30.716C131.449 29.876 131.641 29.12 132.025 28.448C132.421 27.776 132.949 27.248 133.609 26.864C134.281 26.468 135.031 26.27 135.859 26.27C136.651 26.27 137.347 26.45 137.947 26.81C138.559 27.17 139.033 27.668 139.369 28.304C139.717 28.94 139.891 29.66 139.891 30.464C139.891 30.584 139.885 30.716 139.873 30.86C139.861 30.992 139.837 31.148 139.801 31.328H132.583V29.978H138.937L138.343 30.5C138.343 29.924 138.241 29.438 138.037 29.042C137.833 28.634 137.545 28.322 137.173 28.106C136.801 27.878 136.351 27.764 135.823 27.764C135.271 27.764 134.785 27.884 134.365 28.124C133.945 28.364 133.621 28.7 133.393 29.132C133.165 29.564 133.051 30.074 133.051 30.662C133.051 31.262 133.171 31.79 133.411 32.246C133.651 32.69 133.993 33.038 134.437 33.29C134.881 33.53 135.391 33.65 135.967 33.65C136.447 33.65 136.885 33.566 137.281 33.398C137.689 33.23 138.037 32.978 138.325 32.642L139.369 33.704C138.961 34.184 138.457 34.55 137.857 34.802C137.269 35.054 136.639 35.18 135.967 35.18Z" fill="black"/>
</svg>
