<svg width="37" height="37" viewBox="0 0 37 37" fill="none" xmlns="http://www.w3.org/2000/svg">
<circle cx="18.5" cy="18.5" r="18.5" fill="#F05A24"/>
<path d="M19.06 26.28C18.0733 26.28 17.1867 26.0933 16.4 25.72C15.6267 25.3467 15.0133 24.8067 14.56 24.1C14.12 23.3933 13.9 22.54 13.9 21.54V21.16H15.52V21.52C15.52 22.5467 15.8467 23.3533 16.5 23.94C17.1533 24.5267 18.0067 24.82 19.06 24.82C20.1267 24.82 20.9533 24.5467 21.54 24C22.14 23.44 22.44 22.74 22.44 21.9V21.74C22.44 21.1267 22.2933 20.6333 22 20.26C21.7067 19.8733 21.3067 19.5933 20.8 19.42C20.3067 19.2333 19.76 19.14 19.16 19.14H16.88V17.12L22.22 13.7V13.46H14.24V12H23.94V14.26L18.72 17.62V17.86H19.72C20.5067 17.86 21.2267 18.0067 21.88 18.3C22.5467 18.58 23.0733 19.0067 23.46 19.58C23.86 20.14 24.06 20.8467 24.06 21.7V21.92C24.06 22.8 23.8533 23.5667 23.44 24.22C23.0267 24.8733 22.4467 25.38 21.7 25.74C20.9533 26.1 20.0733 26.28 19.06 26.28Z" fill="white"/>
</svg>
