<svg width="37" height="37" viewBox="0 0 37 37" fill="none" xmlns="http://www.w3.org/2000/svg">
<circle cx="18.5" cy="18.5" r="18.5" fill="#F05A24"/>
<path d="M14.06 26V24.54C14.06 23.54 14.2333 22.74 14.58 22.14C14.94 21.54 15.4333 21.06 16.06 20.7C16.7 20.3267 17.46 20.0067 18.34 19.74L19.44 19.4C20.04 19.2133 20.5667 18.9867 21.02 18.72C21.4733 18.44 21.8267 18.0933 22.08 17.68C22.3333 17.2533 22.46 16.7333 22.46 16.12V16.04C22.46 15.16 22.1533 14.4667 21.54 13.96C20.9267 13.44 20.14 13.18 19.18 13.18C18.1667 13.18 17.34 13.4533 16.7 14C16.06 14.5333 15.74 15.3467 15.74 16.44V16.72H14.14V16.46C14.14 15.4467 14.36 14.5867 14.8 13.88C15.24 13.1733 15.84 12.64 16.6 12.28C17.36 11.9067 18.22 11.72 19.18 11.72C20.14 11.72 20.9867 11.9 21.72 12.26C22.4667 12.62 23.0467 13.12 23.46 13.76C23.8733 14.4 24.08 15.1467 24.08 16V16.18C24.08 17.0867 23.9 17.84 23.54 18.44C23.18 19.0267 22.68 19.5067 22.04 19.88C21.4133 20.2533 20.6733 20.5733 19.82 20.84L18.74 21.18C18.06 21.3933 17.4933 21.62 17.04 21.86C16.6 22.0867 16.2667 22.38 16.04 22.74C15.8133 23.1 15.7 23.5867 15.7 24.2V24.54H23.96V26H14.06Z" fill="white"/>
</svg>
