<svg width="42" height="42" viewBox="0 0 42 42" fill="none" xmlns="http://www.w3.org/2000/svg">
<circle cx="21" cy="21" r="21" fill="#F05A24"/>
<g clip-path="url(#clip0_789_97)">
<path d="M21 24C22.6569 24 24 22.6569 24 21C24 19.3431 22.6569 18 21 18C19.3431 18 18 19.3431 18 21C18 22.6569 19.3431 24 21 24Z" stroke="white" stroke-width="2" stroke-linecap="round" stroke-linejoin="round"/>
<path d="M28.4 24C28.2669 24.3016 28.2272 24.6362 28.286 24.9606C28.3448 25.285 28.4995 25.5843 28.73 25.82L28.79 25.88C28.976 26.0657 29.1235 26.2863 29.2241 26.5291C29.3248 26.7719 29.3766 27.0322 29.3766 27.295C29.3766 27.5578 29.3248 27.8181 29.2241 28.0609C29.1235 28.3037 28.976 28.5243 28.79 28.71C28.6043 28.896 28.3837 29.0435 28.1409 29.1441C27.8981 29.2448 27.6378 29.2966 27.375 29.2966C27.1122 29.2966 26.8519 29.2448 26.6091 29.1441C26.3663 29.0435 26.1457 28.896 25.96 28.71L25.9 28.65C25.6643 28.4195 25.365 28.2648 25.0406 28.206C24.7162 28.1472 24.3816 28.1869 24.08 28.32C23.7842 28.4468 23.532 28.6572 23.3543 28.9255C23.1766 29.1938 23.0813 29.5082 23.08 29.83V30C23.08 30.5304 22.8693 31.0391 22.4942 31.4142C22.1191 31.7893 21.6104 32 21.08 32C20.5496 32 20.0409 31.7893 19.6658 31.4142C19.2907 31.0391 19.08 30.5304 19.08 30V29.91C19.0723 29.579 18.9651 29.258 18.7725 28.9887C18.5799 28.7194 18.3107 28.5143 18 28.4C17.6984 28.2669 17.3638 28.2272 17.0394 28.286C16.715 28.3448 16.4157 28.4995 16.18 28.73L16.12 28.79C15.9343 28.976 15.7137 29.1235 15.4709 29.2241C15.2281 29.3248 14.9678 29.3766 14.705 29.3766C14.4422 29.3766 14.1819 29.3248 13.9391 29.2241C13.6963 29.1235 13.4757 28.976 13.29 28.79C13.104 28.6043 12.9565 28.3837 12.8559 28.1409C12.7552 27.8981 12.7034 27.6378 12.7034 27.375C12.7034 27.1122 12.7552 26.8519 12.8559 26.6091C12.9565 26.3663 13.104 26.1457 13.29 25.96L13.35 25.9C13.5805 25.6643 13.7352 25.365 13.794 25.0406C13.8528 24.7162 13.8131 24.3816 13.68 24.08C13.5532 23.7842 13.3428 23.532 13.0745 23.3543C12.8062 23.1766 12.4918 23.0813 12.17 23.08H12C11.4696 23.08 10.9609 22.8693 10.5858 22.4942C10.2107 22.1191 10 21.6104 10 21.08C10 20.5496 10.2107 20.0409 10.5858 19.6658C10.9609 19.2907 11.4696 19.08 12 19.08H12.09C12.421 19.0723 12.742 18.9651 13.0113 18.7725C13.2806 18.5799 13.4857 18.3107 13.6 18C13.7331 17.6984 13.7728 17.3638 13.714 17.0394C13.6552 16.715 13.5005 16.4157 13.27 16.18L13.21 16.12C13.024 15.9343 12.8765 15.7137 12.7759 15.4709C12.6752 15.2281 12.6234 14.9678 12.6234 14.705C12.6234 14.4422 12.6752 14.1819 12.7759 13.9391C12.8765 13.6963 13.024 13.4757 13.21 13.29C13.3957 13.104 13.6163 12.9565 13.8591 12.8559C14.1019 12.7552 14.3622 12.7034 14.625 12.7034C14.8878 12.7034 15.1481 12.7552 15.3909 12.8559C15.6337 12.9565 15.8543 13.104 16.04 13.29L16.1 13.35C16.3357 13.5805 16.635 13.7352 16.9594 13.794C17.2838 13.8528 17.6184 13.8131 17.92 13.68H18C18.2958 13.5532 18.548 13.3428 18.7257 13.0745C18.9034 12.8062 18.9987 12.4918 19 12.17V12C19 11.4696 19.2107 10.9609 19.5858 10.5858C19.9609 10.2107 20.4696 10 21 10C21.5304 10 22.0391 10.2107 22.4142 10.5858C22.7893 10.9609 23 11.4696 23 12V12.09C23.0013 12.4118 23.0966 12.7262 23.2743 12.9945C23.452 13.2628 23.7042 13.4732 24 13.6C24.3016 13.7331 24.6362 13.7728 24.9606 13.714C25.285 13.6552 25.5843 13.5005 25.82 13.27L25.88 13.21C26.0657 13.024 26.2863 12.8765 26.5291 12.7759C26.7719 12.6752 27.0322 12.6234 27.295 12.6234C27.5578 12.6234 27.8181 12.6752 28.0609 12.7759C28.3037 12.8765 28.5243 13.024 28.71 13.21C28.896 13.3957 29.0435 13.6163 29.1441 13.8591C29.2448 14.1019 29.2966 14.3622 29.2966 14.625C29.2966 14.8878 29.2448 15.1481 29.1441 15.3909C29.0435 15.6337 28.896 15.8543 28.71 16.04L28.65 16.1C28.4195 16.3357 28.2648 16.635 28.206 16.9594C28.1472 17.2838 28.1869 17.6184 28.32 17.92V18C28.4468 18.2958 28.6572 18.548 28.9255 18.7257C29.1938 18.9034 29.5082 18.9987 29.83 19H30C30.5304 19 31.0391 19.2107 31.4142 19.5858C31.7893 19.9609 32 20.4696 32 21C32 21.5304 31.7893 22.0391 31.4142 22.4142C31.0391 22.7893 30.5304 23 30 23H29.91C29.5882 23.0013 29.2738 23.0966 29.0055 23.2743C28.7372 23.452 28.5268 23.7042 28.4 24Z" stroke="white" stroke-width="2" stroke-linecap="round" stroke-linejoin="round"/>
</g>
<defs>
<clipPath id="clip0_789_97">
<rect width="24" height="24" fill="white" transform="translate(9 9)"/>
</clipPath>
</defs>
</svg>
