<svg width="60" height="60" viewBox="0 0 60 60" fill="none" xmlns="http://www.w3.org/2000/svg">
<rect width="60" height="60" rx="30" fill="#F0C2F7"/>
<path d="M22.0132 19C19.1656 19 16.9368 19.7067 16.5434 22.3949C16.4174 23.2556 16.6946 24.1026 17.3316 24.7145C17.648 25.0184 17.9826 25.38 18.425 25.7458C19.5352 26.6656 20.9506 27.6996 22.275 28.625C25.9192 31.1687 28.7962 32.75 30.5 32.75C32.2038 32.75 35.0808 31.1687 38.725 28.625C40.0508 27.6996 41.4662 26.6643 42.575 25.7458C43.0174 25.38 43.352 25.0198 43.6684 24.7145C44.3054 24.1026 44.5826 23.2556 44.4566 22.3949C44.0632 19.7067 41.8344 19 38.9868 19H22.0132ZM16.5 27.4645V35.5C16.5 38.5374 19.0074 41 22.1 41H38.9C41.9926 41 44.5 38.5374 44.5 35.5V27.4645C43.352 28.5356 42.0696 29.6411 40.2566 30.902C36.2862 33.663 32.7204 35.5 30.5 35.5C28.2796 35.5 24.7138 33.663 20.7434 30.902C18.929 29.6411 17.648 28.5356 16.5 27.4645Z" fill="white"/>
</svg>
