<svg width="70" height="70" viewBox="0 0 70 70" fill="none" xmlns="http://www.w3.org/2000/svg">
<rect width="70" height="70" rx="12" fill="white"/>
<path d="M35.3464 44.6552C40.8693 44.6552 45.3464 40.178 45.3464 34.6552C45.3464 29.1323 40.8693 24.6552 35.3464 24.6552C29.8236 24.6552 25.3464 29.1323 25.3464 34.6552C25.3464 40.178 29.8236 44.6552 35.3464 44.6552Z" stroke="#F05A24" stroke-width="2" stroke-linecap="round" stroke-linejoin="round"/>
<path d="M25.3464 34.6552H45.3464" stroke="#F05A24" stroke-width="2" stroke-linecap="round" stroke-linejoin="round"/>
<path d="M35.3464 24.6552C37.8477 27.3935 39.2692 30.9472 39.3464 34.6552C39.2692 38.3631 37.8477 41.9168 35.3464 44.6552C32.8452 41.9168 31.4237 38.3631 31.3464 34.6552C31.4237 30.9472 32.8452 27.3935 35.3464 24.6552Z" stroke="#F05A24" stroke-width="2" stroke-linecap="round" stroke-linejoin="round"/>
</svg>
