<svg width="24" height="29" viewBox="0 0 24 29" fill="none" xmlns="http://www.w3.org/2000/svg">
<path d="M10 15.5467C10.4295 16.2333 10.9774 16.8014 11.6066 17.2125C12.2357 17.6236 12.9315 17.8681 13.6467 17.9293C14.3618 17.9906 15.0796 17.8672 15.7513 17.5675C16.4231 17.2678 17.0331 16.7989 17.54 16.1925L20.54 12.6048C21.4508 11.477 21.9548 9.96658 21.9434 8.39876C21.932 6.83095 21.4061 5.33121 20.4791 4.22256C19.5521 3.1139 18.298 2.48504 16.987 2.47142C15.676 2.45779 14.413 3.0605 13.47 4.14972L11.75 6.19472" stroke="#F05A24" stroke-width="2" stroke-linecap="round" stroke-linejoin="round"/>
<path d="M14 13.1548C13.5705 12.4682 13.0226 11.9 12.3935 11.4889C11.7643 11.0778 11.0685 10.8334 10.3534 10.7721C9.63821 10.7109 8.92041 10.8343 8.24866 11.1339C7.5769 11.4336 6.96689 11.9026 6.46 12.509L3.46 16.0967C2.54921 17.2244 2.04524 18.7349 2.05663 20.3027C2.06802 21.8705 2.59387 23.3703 3.52091 24.4789C4.44795 25.5876 5.70201 26.2164 7.013 26.23C8.32398 26.2437 9.58699 25.641 10.53 24.5517L12.24 22.5067" stroke="#F05A24" stroke-width="2" stroke-linecap="round" stroke-linejoin="round"/>
</svg>
