<svg width="60" height="60" viewBox="0 0 60 60" fill="none" xmlns="http://www.w3.org/2000/svg">
<rect width="60" height="60" rx="30" fill="#FFE6DD"/>
<path d="M24.2778 15.8365C19.9829 15.8365 16.5 19.3194 16.5 23.6143V36.0588C16.5 40.3537 19.9829 43.8365 24.2778 43.8365H36.7222C41.0171 43.8365 44.5 40.3537 44.5 36.0588V23.6143C44.5 19.3194 41.0171 15.8365 36.7222 15.8365H24.2778ZM24.2778 18.9477H36.7222C39.2998 18.9477 41.3889 21.0368 41.3889 23.6143V36.0588C41.3889 38.6363 39.2998 40.7254 36.7222 40.7254H24.2778C21.7002 40.7254 19.6111 38.6363 19.6111 36.0588V23.6143C19.6111 21.0368 21.7002 18.9477 24.2778 18.9477ZM36.7222 22.0588C35.8636 22.0588 35.1667 22.7557 35.1667 23.6143C35.1667 24.473 35.8636 25.1699 36.7222 25.1699C37.5809 25.1699 38.2778 24.473 38.2778 23.6143C38.2778 22.7557 37.5809 22.0588 36.7222 22.0588ZM30.5 23.6143C27.0638 23.6143 24.2778 26.4003 24.2778 29.8365C24.2778 33.2728 27.0638 36.0588 30.5 36.0588C33.9362 36.0588 36.7222 33.2728 36.7222 29.8365C36.7222 26.4003 33.9362 23.6143 30.5 23.6143ZM30.5 26.7254C32.2189 26.7254 33.6111 28.1177 33.6111 29.8365C33.6111 31.5554 32.2189 32.9477 30.5 32.9477C28.7811 32.9477 27.3889 31.5554 27.3889 29.8365C27.3889 28.1177 28.7811 26.7254 30.5 26.7254Z" fill="white"/>
</svg>
